<svg width="7" height="10" viewBox="0 0 7 10" fill="none" xmlns="http://www.w3.org/2000/svg">
<path d="M1.94445 2.55556V1.77778C1.94445 1.5715 2.02639 1.37367 2.17225 1.22781C2.31811 1.08194 2.51594 1 2.72222 1H4.27778C4.48406 1 4.68189 1.08194 4.82775 1.22781C4.97361 1.37367 5.05556 1.5715 5.05556 1.77778V2.55556M6.22222 2.55556V8C6.22222 8.20628 6.14028 8.40411 5.99442 8.54997C5.84856 8.69583 5.65072 8.77778 5.44445 8.77778H1.55556C1.34928 8.77778 1.15145 8.69583 1.00558 8.54997C0.859723 8.40411 0.777779 8.20628 0.777779 8V2.55556H6.22222Z" stroke="white" stroke-width="0.7" stroke-linecap="round" stroke-linejoin="round"/>
</svg>
